<?xml version="1.0" encoding="utf-8"?>
<!-- Generator: Adobe Illustrator 22.0.1, SVG Export Plug-In . SVG Version: 6.00 Build 0)  -->
<svg version="1.1" id="Layer_1" xmlns="http://www.w3.org/2000/svg" xmlns:xlink="http://www.w3.org/1999/xlink" x="0px" y="0px"
	 viewBox="0 0 117.6 66.4" style="enable-background:new 0 0 117.6 66.4;" xml:space="preserve">
<style type="text/css">
	.st0{fill:#3B3B3B;}
</style>
<g>
	<path class="st0" d="M45.8,28.6c3.5,0,6.6-1.3,9.1-3.9c2.4-2.5,3.8-5.8,3.8-9.3c0-3.6-1.3-6.9-3.8-9.3c-2.4-2.5-5.6-3.8-9.1-3.8
		c-3.5,0-6.7,1.4-9.1,3.8c-2.4,2.4-3.7,5.8-3.7,9.3s1.3,6.9,3.7,9.3C39.1,27.2,42.4,28.6,45.8,28.6z M45.8,5.8c2.4,0,4.6,1,6.4,2.8
		c1.7,1.8,2.7,4.2,2.7,6.9c0,2.6-1,5-2.7,6.9c-1.8,1.8-4,2.8-6.4,2.8s-4.6-1-6.4-2.8c-1.8-1.9-2.7-4.3-2.7-6.9c0-2.6,0.9-5,2.7-6.9
		C41.2,6.7,43.4,5.8,45.8,5.8z"/>
	<polyline class="st0" points="73.2,28 74.6,28 83.2,6.3 85.9,6.3 85.9,3 76.2,3 76.2,6.3 79.3,6.3 73,22.3 66.8,6.3 69.9,6.3 
		69.9,3 60.2,3 60.2,6.3 62.9,6.3 71.5,28 73.2,28 	"/>
	<path class="st0" d="M116,6.3V3h-7.3v3.1c-2.3-2.4-5.4-3.8-8.9-3.8c-3.4,0-6.6,1.4-9,3.8c-2.4,2.5-3.6,5.6-3.6,9.2
		c0,3.6,1.2,6.7,3.6,9.2c2.4,2.5,5.6,3.8,9,3.8c3.6,0,6.5-1.3,8.9-3.9v3.3h7.3v-3.4h-3.6V6.3H116z M106.1,22.2
		c-1.7,1.8-3.9,2.8-6.2,2.8c-5,0-8.9-4.2-8.9-9.5s3.9-9.6,8.9-9.6c2.4,0,4.6,1,6.2,2.8c1.7,1.8,2.6,4.2,2.6,6.8
		S107.8,20.4,106.1,22.2z"/>
	<polygon class="st0" points="69.4,35.9 65.7,35.9 65.7,40.6 60.6,40.6 60.6,44.1 65.7,44.1 65.7,65.7 73.8,65.7 73.8,62.3 
		69.4,62.3 69.4,44.1 74.7,44.1 74.7,40.6 69.4,40.6 	"/>
	<path class="st0" d="M53.5,58.2c-1.6,2.8-4.4,4.4-7.6,4.4c-4.7,0-8.3-3.5-9-8.6h21.9l0-1.2c-0.3-7.6-5.7-13-12.9-13
		c-3.5,0-6.7,1.4-9.1,3.8c-2.4,2.4-3.7,5.8-3.7,9.3c0,3.5,1.4,6.9,3.7,9.3c2.4,2.5,5.7,3.9,9.1,3.9c5.4,0,9.7-2.9,11.6-7.9l0-0.1
		H53.5z M45.9,43.3c4.2,0,7.7,2.9,8.8,7.1H37.2C38.4,46,41.6,43.3,45.9,43.3z"/>
	<path class="st0" d="M27.6,14.9c0-3.2-0.1-5.9-2-8.4c-2-2.7-4.9-4.1-8.7-4.1c-2.7,0-5.2,1.1-6.8,3.1l0-2.7H2.6v3.5h3.7v18.4H2.9
		v3.3h10.5v-3.3h-3.3v-9.6c0-2.7,0-4.6,1.2-6.4c1.3-1.9,3.2-2.8,5.8-2.8c2.5,0,4.5,1,5.7,2.8c1.1,1.6,1.1,3.6,1.1,6.3v9.6h-3.3v3.3
		h10.5v-3.3h-3.5V14.9z"/>
	<path class="st0" d="M27.6,52.5c0-3.2-0.1-5.9-2-8.4c-2-2.7-4.9-4.1-8.7-4.1c-2.7,0-5.2,1.1-6.8,3.1l0-2.7H2.6v3.5h3.7v18.4H2.9
		v3.3h10.5v-3.3h-3.3v-9.6c0-2.7,0-4.6,1.2-6.4c1.3-1.9,3.2-2.8,5.8-2.8c2.5,0,4.5,1,5.7,2.8c1.1,1.6,1.1,3.6,1.1,6.3v9.6h-3.3v3.3
		h10.5v-3.3h-3.5V52.5z"/>
</g>
</svg>
